<?xml version="1.0" encoding="UTF-8"?>
<svg width="82px" height="82px" viewBox="0 0 82 82" version="1.1" xmlns="http://www.w3.org/2000/svg" xmlns:xlink="http://www.w3.org/1999/xlink">
    <!-- Generator: Sketch 52.6 (67491) - http://www.bohemiancoding.com/sketch -->
    <title>Group</title>
    <desc>Created with Sketch.</desc>
    <g id="Page-1" stroke="none" stroke-width="1" fill="none" fill-rule="evenodd">
        <g id="Definition" transform="translate(-33.000000, -134.000000)">
            <g id="information" transform="translate(33.000000, 79.000000)">
                <g id="Group" transform="translate(0.000000, 55.000000)">
                    <rect id="Rectangle" fill="#FFFFFF" fill-rule="nonzero" x="0" y="0" width="82" height="82"></rect>
                    <path d="M37.8942407,61 C47.2933277,61 57.6623343,52.2059445 57.6623343,41 C57.6623343,29.7940555 47.2933277,21 37.8942407,21 C28.4951538,21 25,33.8242022 25,43.0150734 C25,52.2059445 28.4951538,61 37.8942407,61 Z" id="Weird-Shape" fill="#FDEDB5"></path>
                    <g id="collection" transform="translate(27.000000, 26.000000)" stroke="#4716B5" stroke-linecap="round" stroke-linejoin="round" stroke-width="2">
                        <rect id="Rectangle" x="3" y="0" width="25" height="30"></rect>
                        <rect id="Rectangle" x="12" y="11" width="11" height="8"></rect>
                        <path d="M6,9 L0,9" id="Path"></path>
                        <path d="M6,15 L0,15" id="Path"></path>
                        <path d="M6,21 L0,21" id="Path"></path>
                    </g>
                </g>
            </g>
        </g>
    </g>
</svg>