<svg width="51px" height="62px" viewBox="0 0 51 62" version="1.1" xmlns="http://www.w3.org/2000/svg" xmlns:xlink="http://www.w3.org/1999/xlink">
    <g id="Page-1" stroke="none" stroke-width="1" fill="none" fill-rule="evenodd">
        <g id="List" transform="translate(-65.000000, -91.000000)">
            <g id="list" transform="translate(65.000000, 69.000000)">
                <g id="normal">
                    <g id="1">
                        <g id="Group-2" transform="translate(0.000000, 22.000000)">
                            <path d="M20.0001729,62 C34.5790356,62 50.6623343,48.369214 50.6623343,31 C50.6623343,13.630786 34.5790356,0 20.0001729,0 C5.42131026,0 2.09610107e-13,19.8775134 2.09610107e-13,34.1233637 C2.09610107e-13,48.369214 5.42131026,62 20.0001729,62 Z" id="Weird-Shape" fill="#FDEDB5"></path>
                            <g id="sign-right" transform="translate(16.000000, 20.000000)" fill="#4716B5">
                                <path d="M0.0488234167,27.7586207 C0.138393702,27.9034483 0.272749131,28 0.451889703,28 L7.61751256,28 C7.75186799,28 7.88622342,27.9034483 7.97579371,27.8068966 L16.9328223,14.2896552 C17.0223926,14.1448276 17.0223926,13.9034483 16.9328223,13.7103448 L7.97579371,0.193103448 C7.88622342,0.0965517241 7.75186799,0 7.61751256,0 L0.451889703,0 C0.272749131,0 0.138393702,0.0965517241 0.0488234167,0.24137931 C-0.0407468691,0.386206897 0.00403827382,0.579310345 0.0936085596,0.724137931 L8.87149657,14 L0.0936085596,27.2275862 C0.00403827382,27.3724138 -0.0407468691,27.5655172 0.0488234167,27.7586207 Z" id="Path"></path>
                            </g>
                        </g>
                    </g>
                </g>
            </g>
        </g>
    </g>
</svg>