<?xml version="1.0" encoding="UTF-8"?>
<svg width="51px" height="62px" viewBox="0 0 51 62" version="1.1" xmlns="http://www.w3.org/2000/svg" xmlns:xlink="http://www.w3.org/1999/xlink">
    <!-- Generator: Sketch 52.6 (67491) - http://www.bohemiancoding.com/sketch -->
    <title>Group</title>
    <desc>Created with Sketch.</desc>
    <g id="Page-1" stroke="none" stroke-width="1" fill="none" fill-rule="evenodd">
        <g id="List" transform="translate(-65.000000, -361.000000)">
            <g id="list" transform="translate(65.000000, 69.000000)">
                <g id="advantages" transform="translate(0.000000, 270.000000)">
                    <g id="1">
                        <g id="Group" transform="translate(0.000000, 22.000000)">
                            <path d="M20.0001729,62 C34.5790356,62 50.6623343,48.369214 50.6623343,31 C50.6623343,13.630786 34.5790356,0 20.0001729,0 C5.42131026,0 2.09610107e-13,19.8775134 2.09610107e-13,34.1233637 C2.09610107e-13,48.369214 5.42131026,62 20.0001729,62 Z" id="Weird-Shape" fill="#FDEDB5"></path>
                            <g id="star-rate" transform="translate(9.000000, 16.000000)" fill="#4716B5">
                                <path d="M26.8100691,10.7948365 C26.7509302,10.6185188 26.5857611,10.4996947 26.3997898,10.4996778 L16.7621221,10.4996778 L13.8287118,1.26363363 C13.7715998,1.08398653 13.6047756,0.961970296 13.4162687,0.961970296 C13.2277617,0.961970296 13.0609375,1.08398653 13.0038255,1.26363363 L10.0704153,10.4996778 L0.432747501,10.4996778 C0.246464091,10.4996778 0.081080499,10.6188795 0.0221725124,10.7956035 C-0.0367354743,10.9723275 0.02405035,11.166919 0.173077078,11.2786891 L7.86364944,17.0892476 L4.83805623,26.3954027 C4.78008907,26.5737396 4.8435666,26.7691194 4.9952815,26.879332 C5.1469964,26.9895447 5.35242921,26.9895137 5.50411086,26.8792553 L13.4162687,21.1305849 L21.3284264,26.8792553 C21.4801081,26.9895137 21.6855409,26.9895447 21.8372558,26.879332 C21.9889707,26.7691194 22.0524482,26.5737396 21.9944811,26.3954027 L18.9701862,17.088382 L26.6594602,11.2786891 C26.8087108,11.16673 26.8694103,10.9717239 26.8100691,10.7948365 Z" id="Path"></path>
                            </g>
                        </g>
                    </g>
                </g>
            </g>
        </g>
    </g>
</svg>