<svg viewBox="0 0 60 62" version="1.1" xmlns="http://www.w3.org/2000/svg" xmlns:xlink="http://www.w3.org/1999/xlink">
    <g stroke="none" stroke-width="1" fill="none" fill-rule="evenodd">
        <g transform="translate(-88.000000, -143.000000)">
            <g transform="translate(88.000000, 116.000000)">
                <g transform="translate(0.000000, 27.000000)">
                    <path d="M25.0001729,62 C39.5790356,62 55.6623343,48.369214 55.6623343,31 C55.6623343,13.630786 39.5790356,0 25.0001729,0 C10.4213103,0 5,19.8775134 5,34.1233637 C5,48.369214 10.4213103,62 25.0001729,62 Z" fill="#FDEDB5"></path>
                    <g transform="translate(0.000000, 7.000000)" fill="#4716B5" fill-rule="nonzero">
                        <path d="M23.5019545,43.80061 C17.9310145,48.98037 8.44362447,47.61081 4.00152447,42.12627 C-1.25588553,35.64878 -2.30562553,23.372 6.85347447,12.39008 C11.3965045,6.94291 16.8715845,2.81288 23.2731245,0 L26.2255345,4.75511 C17.1191245,9.16791 10.3127545,15.15096 9.34823447,25.182 C13.4569445,25.182 16.8658445,25.03317 19.9021245,26.11963 C23.3589545,27.35658 25.4586645,29.6506 26.3204145,32.28118 C27.6874245,36.39995 27.0247545,40.52518 23.5019545,43.80061 Z M56.5198545,43.80061 C50.9489145,48.98037 41.4615245,47.61081 37.0194245,42.12627 C31.7620145,35.64878 30.7122645,23.372 39.8713745,12.39008 C44.4144045,6.94291 49.8894745,2.81288 56.2910245,0 L59.2434345,4.75511 C50.1370245,9.16791 43.3306545,15.15096 42.3661345,25.182 C46.4748445,25.182 49.8837445,25.03317 52.9200245,26.11963 C56.3768545,27.35658 58.4765645,29.6506 59.3383145,32.28118 C60.7053145,36.39995 60.0426445,40.52518 56.5198545,43.80061 Z"></path>
                    </g>
                </g>
            </g>
        </g>
    </g>
</svg>